/* XPM */
static char *desktop[] = {
/* columns rows colors chars-per-pixel */
"48 48 256 2 ",
"   c #000000",
".  c gray4",
"X  c #131313",
"o  c #1C1C1C",
"O  c #2A1E13",
"+  c #221B1D",
"@  c #29231F",
"#  c #2B1225",
"$  c #2C1229",
"%  c #271027",
"&  c #341625",
"*  c #3C1926",
"=  c #33152B",
"-  c #3B1A2C",
";  c #38172A",
":  c #3D1C32",
">  c #3E1731",
",  c #242424",
"<  c #2D2D2D",
"1  c #3A2638",
"2  c #392537",
"3  c #323232",
"4  c #3B3B3B",
"5  c #581B1F",
"6  c #6B1E1F",
"7  c #47301F",
"8  c #441A26",
"9  c #4C1C26",
"0  c #431E2D",
"q  c #4A1E2B",
"w  c #401724",
"e  c #541E25",
"r  c #5A1F26",
"t  c #541F28",
"y  c #5C1F28",
"u  c #441D32",
"i  c #4C1D37",
"p  c #661E20",
"a  c #4C222E",
"s  c #47202F",
"d  c #552126",
"f  c #5A2226",
"g  c #54232C",
"h  c #5C232B",
"j  c #5C282E",
"k  c #5A3D2C",
"l  c #4D2332",
"z  c #462738",
"x  c #542633",
"c  c #592733",
"v  c #5E2932",
"b  c #54233A",
"n  c #5B283B",
"m  c #5A253E",
"M  c #5C333D",
"N  c #53333B",
"B  c #4C3235",
"V  c #61262E",
"C  c #61292F",
"Z  c #6B2B2D",
"A  c #672325",
"S  c #7C2B2B",
"D  c #782323",
"F  c #622B33",
"G  c #6B2C34",
"H  c #632B3B",
"J  c #6B2D3B",
"K  c #612730",
"L  c #722E32",
"P  c #732F39",
"I  c #65333A",
"U  c #693239",
"Y  c #663934",
"T  c #7B3132",
"R  c #7C323C",
"E  c #733039",
"W  c #62442D",
"Q  c #714E2F",
"!  c #74502F",
"~  c #6E4D33",
"^  c #6E4F3B",
"/  c #724F33",
"(  c #775131",
")  c #7B5332",
"_  c #5A2842",
"`  c #652B43",
"'  c #682B46",
"]  c #732E4A",
"[  c #6E3148",
"{  c #74334C",
"}  c #7C324C",
"|  c #7D394E",
" . c #773344",
".. c #7B3652",
"X. c #484848",
"o. c #545454",
"O. c #696969",
"+. c #727272",
"@. c #832422",
"#. c #922B28",
"$. c #8A2A3D",
"%. c #872539",
"&. c #932C3D",
"*. c #893435",
"=. c #86333C",
"-. c #843334",
";. c #943533",
":. c #96383B",
">. c #90312F",
",. c #A6322C",
"<. c #B73C2D",
"1. c #A73B37",
"2. c #B73E34",
"3. c #A72F29",
"4. c #815634",
"5. c #855935",
"6. c #8A5C36",
"7. c #8E5F38",
"8. c #B8423B",
"9. c #936139",
"0. c #C54A39",
"q. c #CC563D",
"w. c #D05F3F",
"e. c #892E43",
"r. c #912F42",
"t. c #85324C",
"y. c #8A3748",
"u. c #933243",
"i. c #9B3443",
"p. c #943B4D",
"a. c #983A48",
"s. c #843B55",
"d. c #8B3A52",
"f. c #8A3E59",
"g. c #843A55",
"h. c #933E52",
"j. c #A43C44",
"k. c #A83E45",
"l. c #8E4056",
"z. c #8D425B",
"x. c #944154",
"c. c #9D4354",
"v. c #92425B",
"b. c #9D495D",
"n. c #9E4659",
"m. c #9E414D",
"M. c #AD444B",
"N. c #A6434E",
"B. c #B74749",
"V. c #AD4A54",
"C. c #A64D5C",
"Z. c #A54755",
"A. c #B64C52",
"S. c #B3545C",
"D. c #BB5559",
"F. c #BF5041",
"G. c #9B4B64",
"H. c #974962",
"J. c #9F506A",
"K. c #A45165",
"L. c #A3546B",
"P. c #AC5B6D",
"I. c #AD5565",
"U. c #B45B66",
"Y. c #AB5D73",
"T. c #A65871",
"R. c #AC576A",
"E. c #BB636B",
"W. c #AE6278",
"Q. c #B66779",
"!. c #BE717A",
"~. c #C44B46",
"^. c #CE5244",
"/. c #CB574C",
"(. c #D25A43",
"). c #D35C4D",
"_. c #C65A57",
"`. c #D36C49",
"'. c #D76549",
"]. c #D9714D",
"[. c #CC6457",
"{. c #D66A55",
"}. c #D67A52",
"|. c #DA7C54",
" X c #DB7556",
".X c #CF6A46",
"XX c #E47955",
"oX c #E36E4F",
"OX c #C15F67",
"+X c #C86766",
"@X c #D46C64",
"#X c #D87965",
"$X c #C76C74",
"%X c #C9787A",
"&X c #D57C72",
"*X c #CC766D",
"=X c #DB865B",
"-X c #DC8B5E",
";X c #E5865B",
":X c #F08F5C",
">X c #DC8965",
",X c #D98876",
"<X c #DE947A",
"1X c #DE976D",
"2X c #E38464",
"3X c #E58D62",
"4X c #E48F6B",
"5X c #E39464",
"6X c #EB9B65",
"7X c #E69B6B",
"8X c #E89669",
"9X c #F39A62",
"0X c #E59977",
"qX c #F4AA6D",
"wX c #F2A46B",
"eX c #E9A373",
"rX c #EBAD7B",
"tX c #ECA874",
"yX c #F1AE76",
"uX c #F3B57A",
"iX c #F3B176",
"pX c #EEAA72",
"aX c #B86E82",
"sX c #BC7283",
"dX c #BE778A",
"fX c #C37E8C",
"gX c #C67B86",
"hX c #B4B4B4",
"jX c #CD8788",
"kX c #D58A86",
"lX c #DC9782",
"zX c #CC8A93",
"xX c #C98895",
"cX c #CF959C",
"vX c #D59995",
"bX c #E39D83",
"nX c #DBA599",
"mX c #DBA08C",
"MX c #E6AC85",
"NX c #EDBD8A",
"BX c #ECB685",
"VX c #F1BC82",
"CX c #F0BF8A",
"ZX c #E2AD96",
"AX c #ECBC94",
"SX c #E7B799",
"DX c #D39DA0",
"FX c #DCACA5",
"GX c #D8A4A4",
"HX c #DEB0A5",
"JX c #E2B3A2",
"KX c #F0C38B",
"LX c #EEC293",
"PX c #F0C392",
"IX c #EFC38D",
"UX c None",
/* pixels */
"UXUXUXUXUXUXUXUXUXUXUXUXUXUXUXUXUXUXUXUXUXUXUXUXUXUXUXUXUXUXUXUXUXUXUXUXUXUXUXUXUXUXUXUXUXUXUXUX",
"UXUXUXUXUXUXUXUXUXUXUXUXUXUXUXUXUXUXUXUXUXUXUXUXUXUXUXUXUXUXUXUXUXUXUXUXUXUXUXUXUXUXUXUXUXUXUXUX",
"UXUXUXUXUXUXUXUXUXUXUXUXUXUXUXUXUXUXUXUXUXUXUXUXUXUXUXUXUXUXUXUXUXUXUXUXUXUXUXUXUXUXUXUXUXUXUXUX",
"UXUXUXUX3 o X X X X X X X X X X X X X X X X X X X X X X X X X X X X X X X X X X X X o 3 UXUXUXUX",
"UXUXUX< . 3 < < 3                   < .         o < . , o 4                       , o . < UXUXUX",
"UXUXUX+   +.+.+.+.                  O.o.X.O., . o.3 X., X.o.                      hXhX  @ UXUXUX",
"UXUXUXX   3 3 < 3                   X.< 3 3 o   < 4 < < , ,                       4 o.  X UXUXUX",
"UXUXUXX                                                                                 X UXUXUX",
"UXUXUXa %.%.&.i.1.k.B.B.F././.).'.oXoXXXXX;X:X9X9XwXqXqXqXqXqXqX6X6X6X6X5X5X5X5X7X5X5X-X^ UXUXUX",
"UXUXUXp.%.&.i.i.j.M.B.~.D._..X[.oXoXXXXX:X:X9XwXqXiXiXiXuXiXyXpXtX7X7X6X5X5X5X5X5X-X5X3X1XUXUXUX",
"UXUXUXh.e.&.i.i.k.M.A.A.[.[.[.{.@XXX2X2X8X9XpXyXVXVXVXKXuXBXuXrXeX7X7X5X5X5X-X-X=X=X=X=X1XUXUXUX",
"UXUXUXp.%.r.i.a.N.V.A._.D.[.@X*X#X2X4X8XeXMXBXVXCXKXIXKXKXVXBXtXeX7X1X3X-X=X=X}.=X}.}.}.>XUXUXUX",
"UXUXUXh.$.&.i.j.N.V.S.D.+X*X*X>X<X<X0XMXMXBXNXPXPXPXPXKXKXBXrXeX7X5X-X=X|.|.].]..X.X.X.X}.UXUXUX",
"UXUXUXh.$.r.a.a.Z.V.D.D.+X*X,X,X<XbXMXMXAXSXSXLXLXPXPXCXuXrXeX7X3X;XXX|.].].`.w.w.w.w.w.{.UXUXUX",
"UXUXUXh.e.r.a.a.Z.S.U.E.$X%X,XlXmXnXZXJXSXLXAXSXAXNXBXMXtX8X3X=XXXoX'.'.w.(.w.q.q.0.0.0..XUXUXUX",
"UXUXUXh.e.r.p.m.Z.S.U.$X%X,XzXvXnXnXJXJXJXJXSXAXBXMXeX8X2XXX].'.'.(.^.q.0.0.2.0.<.<.<.<.F.UXUXUX",
"UXUXUXl.e.u.a.c.C.I.E.!.%XjXzXnXnXFXHXHXJXJXMXMXbX4X2XXXoX).).^.q.8.8.8.8.1.1.,.,.,.3.3.8.UXUXUX",
"UXUXUXh.e.u.p.c.C.I.E.!.jXzXvXDXGXFXFXHXJXbXbX0X2XoX).^.^.^.~.2.1.;.;.;.>.>.>.#.>.#.#.#.1.UXUXUX",
"UXUXUXh.t.p.h.Z.C.U.Q.!.dXzXcXDXGXGXFXnXZXbX,X@X@X).^.~.8.1.&.>.-.-.T S S S S S D @.@.@.:.UXUXUX",
"UXUXUXf.e.p.h.n.K.P.W.!.jXzXcXcXDXGXDXvXkX&X@X).).~.~.1.&.-.T S Z Z Z Z Z Z Z Z D D D D *.UXUXUX",
"UXUXUXl.t.p.h.b.I.P.Q.!.dXxXcXcXDXvXkXgX&X@X_._.~.M.:.*.T L Z F C j j j k f j A f p p 6 S UXUXUX",
"UXUXUXl.t.p.x.b.K.Y.Q.sXdXxXxXxXzXgX&X$X@X_.~.B.1.:.*.L G Z C j j j h j f j f f f 5 5 5 L UXUXUX",
"UXUXUXl.t.d.x.b.L.Y.W.aXdXfXfXfXgXgX$XOXOX~.B.k.:.=.R L Z C C j j j j d h g d d d e 5 5 F UXUXUX",
"UXUXUXz.t.l.z.H.J.T.W.aXaXsXsX%X$X$XOX_.A.B.j.u.=.T L Z F C j j v 7 j j j h g d d 5 7 5 C UXUXUX",
"UXUXUXf.t.d.f.H.J.T.Y.W.Q.Q.!.Q.E.U.S.A.M.m.:.=.R L G G F C j j j j j j j j h g f e e e F UXUXUX",
"UXUXUXf...d.f.H.G.T.T.W.W.W.W.U.U.S.V.M.m.u.e.R E G G F F j v j v v v v j j j h f e e e F UXUXUX",
"UXUXUXs.t.g.f.H.H.J.L.T.T.P.I.I.V.V.N.a.:.=.R P G G F K F v v F v F F v v v j j h f e r I UXUXUX",
"UXUXUXs.} t.f.f.H.G.G.L.L.K.b.C.c.m.a.y.R R P G G G F F F v v F v F v F v C C j h h f f I UXUXUX",
"UXUXUX..] ..g.f.z.H.H.G.b.b.n.c.p.y.=.R R P G G F v v v v v F I F F j F F F K V j h y y F UXUXUX",
"UXUXUX..] } ..g.s.z.z.z.l.x.h.p.y.y. .E J J H F F I v v v v v v F F F F F F F K h h y h G UXUXUX",
"UXUXUX..' ] ] ..| z.l.s.l.y.t. . .E E U F F v v v v v v v v F v H C F F F F F V V h A y U UXUXUX",
"UXUXUX] ' ' ] ..{ | | | | |  . .J J F H n v c v c v v v v F v F K F F F F G F K V h h h F UXUXUX",
"UXUXUX[ _ ' ' ' ] ] {  . .[ J H H v n c c c c c x c c j j v K F K F F F F F V K V V V y G UXUXUX",
"UXUXUX_ m _ m _ ` ' ` ` ` M n n n x x x c x x c x j v j v v v F j H F K F F V V K A y V G UXUXUX",
"UXUXUX_ i i b _ m _ m m n m n x l x l x x x x x x j c x c j j j v F F K F F V V y V y y J UXUXUX",
"UXUXUX_ i i i i i b b l l l l a l l l a l l a g x g g c c j F j K K j F K V V V V y y y F UXUXUX",
"UXUXUXz > u > u u u u s u u s s s s s s a l a g g g g g c c c h j j v K K h K V A h A y F UXUXUX",
"UXUXUXi > > > > : u u : : : 0 : 0 0 0 s 0 q a a a g g g g h h c h h h c h K y y h h y f F UXUXUX",
"UXUXUX1 $ = = > = ; = < - - ; * - - * 0 0 0 q q a a d g g g g h h h h h h h h h y h y y G UXUXUX",
"UXUXUX1 $ $ = $ = = = = = & & & & & * * 8 8 8 q 9 9 9 d e d e t y t y h h y h y y y y h F UXUXUX",
"UXUXUX2 % $ % $ $ $ $ $ $ $ & & & & ; * * * 8 8 9 9 9 a 9 d d d h t y h y h y y y y y y F UXUXUX",
"UXUXUXB $ % % % $ $ # $ # # # # # = & & * * w 8 w 8 9 9 9 9 e d e t e t e r y f y y h K Y UXUXUX",
"UXUXUX7 N z 1 2 2 1 1 1 1 1 2 1 z z z B B N N N M M M M I I M I I I I U I U I U J I U W 7 UXUXUX",
"UXUXUXO W ^ / ( ( ) ) ) 5.5.5.6.6.6.6.7.7.9.9.9.9.9.7.7.7.6.6.6.5.5.5.4.4.) ) ) ( / / W O UXUXUX",
"UXUXUX  O k ~ Q ! ( ( ) ) ) ) 4.4.4.5.5.6.6.6.6.6.6.6.6.6.5.5.4.) 4.) ) ) ! ( ! Q ~ k O   UXUXUX",
"UXUXUXUXUX                                                                            UXUXUXUXUX",
"UXUXUXUXUXUXUXUXUXUXUXUXUXUXUXUXUXUXUXUXUXUXUXUXUXUXUXUXUXUXUXUXUXUXUXUXUXUXUXUXUXUXUXUXUXUXUXUX",
"UXUXUXUXUXUXUXUXUXUXUXUXUXUXUXUXUXUXUXUXUXUXUXUXUXUXUXUXUXUXUXUXUXUXUXUXUXUXUXUXUXUXUXUXUXUXUXUX"
};
