<?xml version="1.0" encoding="UTF-8" standalone="no"?>
<!-- Created with Inkscape (http://www.inkscape.org/) -->

<svg
   xmlns:dc="http://purl.org/dc/elements/1.1/"
   xmlns:cc="http://creativecommons.org/ns#"
   xmlns:rdf="http://www.w3.org/1999/02/22-rdf-syntax-ns#"
   xmlns:svg="http://www.w3.org/2000/svg"
   xmlns="http://www.w3.org/2000/svg"
   xmlns:xlink="http://www.w3.org/1999/xlink"
   xmlns:sodipodi="http://sodipodi.sourceforge.net/DTD/sodipodi-0.dtd"
   xmlns:inkscape="http://www.inkscape.org/namespaces/inkscape"
   width="22"
   height="22"
   id="svg2"
   sodipodi:version="0.32"
   inkscape:version="0.48.1 r9760"
   version="1.0"
   sodipodi:docname="gpm-primary-charged.svg"
   inkscape:output_extension="org.inkscape.output.svg.inkscape"
   style="display:inline"
   inkscape:export-filename="/home/matthieu/Eye-Candy/Faience/0.1/sources/status/small/audio-volume-high.png"
   inkscape:export-xdpi="90"
   inkscape:export-ydpi="90">
  <defs
     id="defs4">
    <linearGradient
       id="StandardGradient"
       gradientTransform="scale(0.9219544,1.0846523)"
       x1="11.998966"
       y1="0.92195445"
       x2="11.998966"
       y2="19.387045"
       gradientUnits="userSpaceOnUse">
      <stop
         style="stop-color:#000000;stop-opacity:0.23529412;"
         offset="0"
         id="stop3283-1" />
      <stop
         id="stop3850"
         offset="0.69999999"
         style="stop-color:#000000;stop-opacity:0.39215686;" />
      <stop
         style="stop-color:#000000;stop-opacity:0.55;"
         offset="1"
         id="stop2651" />
    </linearGradient>
    <linearGradient
       id="SpecificGradient"
       x1="10.406627"
       y1="2"
       x2="10.406627"
       y2="18.000771"
       gradientUnits="userSpaceOnUse">
      <stop
         style="stop-color:#e64b36;stop-opacity:1;"
         offset="0"
         id="stop3292" />
      <stop
         style="stop-color:#a31414;stop-opacity:1;"
         offset="1"
         id="stop3294" />
    </linearGradient>
    <radialGradient
       inkscape:collect="always"
       xlink:href="#StandardGradient"
       id="radialGradient3851"
       cx="36"
       cy="2"
       fx="36"
       fy="2"
       r="4"
       gradientUnits="userSpaceOnUse" />
    <radialGradient
       inkscape:collect="always"
       xlink:href="#SpecificGradient"
       id="radialGradient3855"
       gradientUnits="userSpaceOnUse"
       cx="36"
       cy="2"
       fx="36"
       fy="2"
       r="4"
       gradientTransform="translate(0,10)" />
    <radialGradient
       inkscape:collect="always"
       xlink:href="#StandardGradient"
       id="radialGradient3827"
       cx="13"
       cy="12.499498"
       fx="13"
       fy="12.499498"
       r="9.0085821"
       gradientTransform="matrix(1.6650789,0,0,0.77703685,-8.6460257,2.2874294)"
       gradientUnits="userSpaceOnUse" />
    <radialGradient
       inkscape:collect="always"
       xlink:href="#StandardGradient"
       id="radialGradient3823"
       gradientUnits="userSpaceOnUse"
       gradientTransform="matrix(3.75,0,0,2.2500001,-35.75,-14.404413)"
       cx="13"
       cy="11.735294"
       fx="13"
       fy="11.735294"
       r="4" />
    <radialGradient
       inkscape:collect="always"
       xlink:href="#StandardGradient"
       id="radialGradient3828"
       gradientUnits="userSpaceOnUse"
       gradientTransform="matrix(3.75,0,0,2.2500001,-35.75,-14.404413)"
       cx="13"
       cy="11.735294"
       fx="13"
       fy="11.735294"
       r="4" />
    <radialGradient
       inkscape:collect="always"
       xlink:href="#StandardGradient"
       id="radialGradient3830"
       gradientUnits="userSpaceOnUse"
       gradientTransform="matrix(3.75,0,0,2.2500001,-35.75,-14.404413)"
       cx="13"
       cy="11.735294"
       fx="13"
       fy="11.735294"
       r="4" />
    <radialGradient
       inkscape:collect="always"
       xlink:href="#SpecificGradient"
       id="radialGradient3824"
       gradientUnits="userSpaceOnUse"
       gradientTransform="matrix(3,0,0,1.8,-26,-6.925)"
       cx="13"
       cy="10.513889"
       fx="13"
       fy="10.513889"
       r="5" />
    <radialGradient
       inkscape:collect="always"
       xlink:href="#StandardGradient"
       id="radialGradient3832"
       gradientUnits="userSpaceOnUse"
       gradientTransform="matrix(3,0,0,1.8,-26,-6.925)"
       cx="13"
       cy="10.513889"
       fx="13"
       fy="10.513889"
       r="5" />
  </defs>
  <sodipodi:namedview
     id="base"
     pagecolor="#818181"
     bordercolor="#ffcfcf"
     borderopacity="1"
     inkscape:pageopacity="1"
     inkscape:pageshadow="2"
     inkscape:zoom="22.640002"
     inkscape:cx="9.6350313"
     inkscape:cy="5.3812048"
     inkscape:document-units="px"
     inkscape:current-layer="layer1"
     showgrid="true"
     inkscape:showpageshadow="false"
     showguides="true"
     inkscape:guide-bbox="true"
     inkscape:window-width="1920"
     inkscape:window-height="1030"
     inkscape:window-x="0"
     inkscape:window-y="25"
     inkscape:window-maximized="1"
     borderlayer="true"
     inkscape:snap-global="true">
    <sodipodi:guide
       orientation="0,1"
       position="26.278146,128"
       id="guide2385" />
    <sodipodi:guide
       orientation="1,0"
       position="128,54.082119"
       id="guide2387" />
    <sodipodi:guide
       orientation="0,1"
       position="60.863576,64.084768"
       id="guide2391" />
    <inkscape:grid
       type="xygrid"
       id="grid3672"
       visible="true"
       enabled="true"
       empspacing="8"
       snapvisiblegridlinesonly="true" />
    <sodipodi:guide
       orientation="1,0"
       position="13,6"
       id="guide3013" />
    <sodipodi:guide
       orientation="0,1"
       position="18,10"
       id="guide3015" />
  </sodipodi:namedview>
  <metadata
     id="metadata7">
    <rdf:RDF>
      <cc:Work
         rdf:about="">
        <dc:format>image/svg+xml</dc:format>
        <dc:type
           rdf:resource="http://purl.org/dc/dcmitype/StillImage" />
        <dc:title></dc:title>
      </cc:Work>
    </rdf:RDF>
  </metadata>
  <g
     inkscape:label="Icon"
     inkscape:groupmode="layer"
     id="layer1"
     style="display:inline">
    <path
       style="opacity:0.05;color:#000000;fill:#ffffff;fill-opacity:1;fill-rule:nonzero;stroke:none;stroke-width:2;marker:none;visibility:visible;display:inline;overflow:visible;enable-background:accumulate"
       d="M 7.8125,2 C 7.3545022,2.0883583 6.9927323,2.5336135 7,3 L 6.5,3 C 5.1309926,3 4,4.130993 4,5.5 l 0,12 C 4,18.869007 5.1309926,20 6.5,20 l 8,0 c 1.369007,0 2.5,-1.130993 2.5,-2.5 l 0,-4.5 1,0 0,5 c 0.0081,0.46029 0.37396,0.889043 0.827242,0.969464 0.453283,0.08042 0.944303,-0.196306 1.110258,-0.625714 l 3,-8 C 23.155087,9.7426559 22.639255,9.0032974 22,9 L 21,9 21,5 C 20.987996,4.5544061 20.642759,4.139396 20.206794,4.0464854 19.770829,3.9535748 19.286385,4.1917676 19.09375,4.59375 L 17,9.46875 17,5.5 C 17,4.130993 15.869007,3 14.5,3 L 14,3 C 13.998681,2.4767629 13.523237,2.0013193 13,2 L 8,2 c -0.031227,-0.00146 -0.062523,-0.00146 -0.09375,0 -0.031227,-0.00146 -0.062523,-0.00146 -0.09375,0 z M 8,3 l 5,0 0,1 1.5,0 C 15.331,4 16,4.669 16,5.5 l 0,12 c 0,0.831 -0.669,1.5 -1.5,1.5 l -8,0 C 5.669,19 5,18.331 5,17.5 L 5,5.5 C 5,4.669 5.669,4 6.5,4 L 8,4 z m 12,2 0,5 2,0 -3,8 0,-6 -2,0 z"
       id="path3927"
       inkscape:connector-curvature="0"
       sodipodi:nodetypes="ccsssssscccscccccsccssccccccccssssssssccccccccc" />
    <path
       style="opacity:0.2;color:#000000;fill:#ffffff;fill-opacity:1;fill-rule:nonzero;stroke:none;stroke-width:2;marker:none;visibility:visible;display:inline;overflow:visible;enable-background:accumulate"
       d="M 21.625,11 19,18 l 0,1 3,-8 z M 17.4375,12 17,13 l 2,0 0,-1 z M 5,17.5 l 0,1 C 5,19.331 5.669,20 6.5,20 l 8,0 c 0.831,0 1.5,-0.669 1.5,-1.5 l 0,-1 c 0,0.831 -0.669,1.5 -1.5,1.5 l -8,0 C 5.669,19 5,18.331 5,17.5 z"
       id="path3912"
       inkscape:connector-curvature="0"
       sodipodi:nodetypes="cccccccccccsssscssc" />
    <rect
       style="opacity:0.80000000000000004;color:#000000;fill:url(#radialGradient3851);fill-opacity:1;fill-rule:nonzero;stroke:none;stroke-width:2;stroke-linecap:round;stroke-linejoin:round;stroke-miterlimit:4;stroke-opacity:1;stroke-dasharray:none;stroke-dashoffset:8.59999999999999787;marker:none;visibility:visible;display:inline;overflow:visible;enable-background:accumulate"
       id="rect3841"
       width="8"
       height="8"
       x="32"
       y="-2" />
    <rect
       y="8"
       x="32"
       height="8"
       width="8"
       id="rect3853"
       style="opacity:0.80000000000000004;color:#000000;fill:url(#radialGradient3855);fill-opacity:1.0;fill-rule:nonzero;stroke:none;stroke-width:2;marker:none;visibility:visible;display:inline;overflow:visible;enable-background:accumulate" />
    <path
       style="color:#000000;fill:url(#radialGradient3832);fill-opacity:1;fill-rule:nonzero;stroke:none;stroke-width:2;marker:none;visibility:visible;display:inline;overflow:visible;enable-background:accumulate"
       d="M 8,3 8,4 6.5,4 C 5.669,4 5,4.669 5,5.5 l 0,12 C 5,18.331 5.669,19 6.5,19 l 8,0 c 0.831,0 1.5,-0.669 1.5,-1.5 l 0,-12 C 16,4.669 15.331,4 14.5,4 L 13,4 13,3 z m 12,2 -3,7 2,0 0,6 3,-8 -2,0 z"
       id="path3828"
       inkscape:connector-curvature="0"
       sodipodi:nodetypes="ccsssssssscccccccccc" />
    <path
       style="opacity:0.3;color:#000000;fill:#000000;fill-opacity:1;fill-rule:nonzero;stroke:none;stroke-width:2;marker:none;visibility:visible;display:inline;overflow:visible;enable-background:accumulate"
       d="M 8,3 8,4 6.5,4 C 5.669,4 5,4.669 5,5.5 l 0,12 C 5,18.331 5.669,19 6.5,19 l 8,0 c 0.831,0 1.5,-0.669 1.5,-1.5 l 0,-12 C 16,4.669 15.331,4 14.5,4 L 13,4 13,3 z m 0.5,0.5 4,0 0,0.5 c 1.06e-4,0.2617705 0.238229,0.4998943 0.5,0.5 l 1.5,0 c 0.562567,0 1,0.437433 1,1 l 0,12 c 0,0.562567 -0.437433,1 -1,1 l -8,0 c -0.5625671,0 -1,-0.437433 -1,-1 l 0,-12 c 0,-0.562567 0.4374329,-1 1,-1 L 8,4.5 C 8.2617705,4.4998943 8.4998943,4.2617705 8.5,4 z M 20,5 l -3,7 2,0 0,6 3,-8 -2,0 z M 19.5,7.4375 19.5,10 c 1.06e-4,0.261771 0.238229,0.499894 0.5,0.5 l 1.28125,0 L 19.5,15.21875 19.5,12 C 19.499894,11.738229 19.261771,11.500106 19,11.5 l -1.25,0 z"
       id="path3892"
       inkscape:connector-curvature="0"
       sodipodi:nodetypes="ccsssssssscccccccssssssssccccccccccccccccccc" />
    <path
       style="opacity:0.3;color:#000000;fill:#000000;fill-opacity:1;fill-rule:nonzero;stroke:none;stroke-width:2;marker:none;visibility:visible;display:inline;overflow:visible;enable-background:accumulate"
       d="m 8,3 0,1 5,0 0,-1 z m 5,1 0,1 1.5,0 C 15.331,5 16,5.669 16,6.5 l 0,-1 C 16,4.669 15.331,4 14.5,4 z M 8,4 6.5,4 C 5.669,4 5,4.669 5,5.5 l 0,1 C 5,5.669 5.669,5 6.5,5 L 8,5 z m 12,1 -3,7 0.4375,0 L 20,6 z m 0,5 0,1 1.625,0 L 22,10 z"
       id="path3883"
       inkscape:connector-curvature="0"
       sodipodi:nodetypes="cccccccscssccsscscccccccccccc" />
  </g>
</svg>
