<?xml version="1.0" encoding="UTF-8" standalone="no"?>
<!-- Created with Inkscape (http://www.inkscape.org/) -->

<svg
   xmlns:dc="http://purl.org/dc/elements/1.1/"
   xmlns:cc="http://creativecommons.org/ns#"
   xmlns:rdf="http://www.w3.org/1999/02/22-rdf-syntax-ns#"
   xmlns:svg="http://www.w3.org/2000/svg"
   xmlns="http://www.w3.org/2000/svg"
   xmlns:xlink="http://www.w3.org/1999/xlink"
   xmlns:sodipodi="http://sodipodi.sourceforge.net/DTD/sodipodi-0.dtd"
   xmlns:inkscape="http://www.inkscape.org/namespaces/inkscape"
   width="22"
   height="22"
   id="svg2"
   sodipodi:version="0.32"
   inkscape:version="0.48.1 r9760"
   version="1.0"
   sodipodi:docname="gpm-primary-100.svg"
   inkscape:output_extension="org.inkscape.output.svg.inkscape"
   style="display:inline"
   inkscape:export-filename="/home/matthieu/Eye-Candy/Faience/0.1/sources/status/small/audio-volume-high.png"
   inkscape:export-xdpi="90"
   inkscape:export-ydpi="90">
  <defs
     id="defs4">
    <linearGradient
       id="StandardGradient"
       gradientTransform="scale(0.9219544,1.0846523)"
       x1="11.998966"
       y1="0.92195445"
       x2="11.998966"
       y2="19.387045"
       gradientUnits="userSpaceOnUse">
      <stop
         style="stop-color:#000000;stop-opacity:0.23529412;"
         offset="0"
         id="stop3283-1" />
      <stop
         id="stop3850"
         offset="0.69999999"
         style="stop-color:#000000;stop-opacity:0.39215686;" />
      <stop
         style="stop-color:#000000;stop-opacity:0.55;"
         offset="1"
         id="stop2651" />
    </linearGradient>
    <linearGradient
       id="SpecificGradient"
       x1="10.406627"
       y1="2"
       x2="10.406627"
       y2="18.000771"
       gradientUnits="userSpaceOnUse">
      <stop
         style="stop-color:#e64b36;stop-opacity:1;"
         offset="0"
         id="stop3292" />
      <stop
         style="stop-color:#a31414;stop-opacity:1;"
         offset="1"
         id="stop3294" />
    </linearGradient>
    <radialGradient
       inkscape:collect="always"
       xlink:href="#StandardGradient"
       id="radialGradient3851"
       cx="36"
       cy="2"
       fx="36"
       fy="2"
       r="4"
       gradientUnits="userSpaceOnUse" />
    <radialGradient
       inkscape:collect="always"
       xlink:href="#SpecificGradient"
       id="radialGradient3855"
       gradientUnits="userSpaceOnUse"
       cx="36"
       cy="2"
       fx="36"
       fy="2"
       r="4"
       gradientTransform="translate(0,10)" />
    <radialGradient
       inkscape:collect="always"
       xlink:href="#StandardGradient"
       id="radialGradient3827"
       cx="13"
       cy="12.499498"
       fx="13"
       fy="12.499498"
       r="9.0085821"
       gradientTransform="matrix(1.6650789,0,0,0.77703685,-8.6460257,2.2874294)"
       gradientUnits="userSpaceOnUse" />
    <radialGradient
       inkscape:collect="always"
       xlink:href="#StandardGradient"
       id="radialGradient3817"
       cx="13"
       cy="11.735294"
       fx="13"
       fy="11.735294"
       r="4"
       gradientTransform="matrix(3.75,0,0,2.2500001,-35.75,-14.404413)"
       gradientUnits="userSpaceOnUse" />
    <radialGradient
       inkscape:collect="always"
       xlink:href="#StandardGradient"
       id="radialGradient3823"
       gradientUnits="userSpaceOnUse"
       gradientTransform="matrix(3.75,0,0,2.2500001,-35.75,-14.404413)"
       cx="13"
       cy="11.735294"
       fx="13"
       fy="11.735294"
       r="4" />
    <radialGradient
       inkscape:collect="always"
       xlink:href="#StandardGradient"
       id="radialGradient3828"
       gradientUnits="userSpaceOnUse"
       gradientTransform="matrix(3.75,0,0,2.2500001,-35.75,-14.404413)"
       cx="13"
       cy="11.735294"
       fx="13"
       fy="11.735294"
       r="4" />
    <radialGradient
       inkscape:collect="always"
       xlink:href="#StandardGradient"
       id="radialGradient3830"
       gradientUnits="userSpaceOnUse"
       gradientTransform="matrix(3.75,0,0,2.2500001,-35.75,-14.404413)"
       cx="13"
       cy="11.735294"
       fx="13"
       fy="11.735294"
       r="4" />
    <radialGradient
       inkscape:collect="always"
       xlink:href="#StandardGradient"
       id="radialGradient3818"
       cx="11"
       cy="2.5"
       fx="11"
       fy="2.5"
       r="2"
       gradientTransform="matrix(1,0,0,0.25,0,1.875)"
       gradientUnits="userSpaceOnUse" />
    <radialGradient
       inkscape:collect="always"
       xlink:href="#StandardGradient"
       id="radialGradient3820"
       cx="11"
       cy="11"
       fx="11"
       fy="11"
       r="5"
       gradientTransform="matrix(1,0,0,1.6,0,-6.6)"
       gradientUnits="userSpaceOnUse" />
    <radialGradient
       inkscape:collect="always"
       xlink:href="#StandardGradient"
       id="radialGradient3824"
       gradientUnits="userSpaceOnUse"
       gradientTransform="matrix(3,0,0,1.8,-26,-6.925)"
       cx="13"
       cy="10.513889"
       fx="13"
       fy="10.513889"
       r="5" />
    <radialGradient
       inkscape:collect="always"
       xlink:href="#StandardGradient"
       id="radialGradient3832"
       gradientUnits="userSpaceOnUse"
       gradientTransform="matrix(3,0,0,1.8,-26,23.075)"
       cx="13"
       cy="10.513889"
       fx="13"
       fy="10.513889"
       r="5" />
    <radialGradient
       inkscape:collect="always"
       xlink:href="#StandardGradient"
       id="radialGradient3838"
       gradientUnits="userSpaceOnUse"
       gradientTransform="matrix(3,0,0,1.8,-26,-5.925)"
       cx="13"
       cy="10.513889"
       fx="13"
       fy="10.513889"
       r="5" />
    <radialGradient
       inkscape:collect="always"
       xlink:href="#StandardGradient"
       id="radialGradient3842"
       gradientUnits="userSpaceOnUse"
       gradientTransform="matrix(3,0,0,1.8,-26,-6.925)"
       cx="13"
       cy="10.513889"
       fx="13"
       fy="10.513889"
       r="5" />
    <radialGradient
       inkscape:collect="always"
       xlink:href="#StandardGradient"
       id="radialGradient3849"
       gradientUnits="userSpaceOnUse"
       gradientTransform="matrix(3,0,0,1.8,-26,-6.925)"
       cx="13"
       cy="10.513889"
       fx="13"
       fy="10.513889"
       r="5" />
    <radialGradient
       inkscape:collect="always"
       xlink:href="#StandardGradient"
       id="radialGradient3853"
       gradientUnits="userSpaceOnUse"
       gradientTransform="matrix(3,0,0,1.8,-26,-6.925)"
       cx="13"
       cy="10.513889"
       fx="13"
       fy="10.513889"
       r="5" />
    <radialGradient
       inkscape:collect="always"
       xlink:href="#StandardGradient"
       id="radialGradient3860"
       gradientUnits="userSpaceOnUse"
       gradientTransform="matrix(3,0,0,1.8,-26,-5.925)"
       cx="13"
       cy="10.513889"
       fx="13"
       fy="10.513889"
       r="5" />
    <radialGradient
       inkscape:collect="always"
       xlink:href="#StandardGradient"
       id="radialGradient3862"
       gradientUnits="userSpaceOnUse"
       gradientTransform="matrix(3,0,0,1.8,-26,-6.925)"
       cx="13"
       cy="10.513889"
       fx="13"
       fy="10.513889"
       r="5" />
    <radialGradient
       inkscape:collect="always"
       xlink:href="#StandardGradient"
       id="radialGradient3869"
       gradientUnits="userSpaceOnUse"
       gradientTransform="matrix(3,0,0,1.8,-26,-6.925)"
       cx="13"
       cy="10.513889"
       fx="13"
       fy="10.513889"
       r="5" />
    <radialGradient
       inkscape:collect="always"
       xlink:href="#StandardGradient"
       id="radialGradient3873"
       gradientUnits="userSpaceOnUse"
       gradientTransform="matrix(3,0,0,1.8,-26,-6.925)"
       cx="13"
       cy="10.513889"
       fx="13"
       fy="10.513889"
       r="5" />
    <radialGradient
       inkscape:collect="always"
       xlink:href="#StandardGradient"
       id="radialGradient3875"
       gradientUnits="userSpaceOnUse"
       gradientTransform="matrix(3,0,0,1.8,-26,-6.925)"
       cx="13"
       cy="10.513889"
       fx="13"
       fy="10.513889"
       r="5" />
    <radialGradient
       inkscape:collect="always"
       xlink:href="#StandardGradient"
       id="radialGradient3887"
       gradientUnits="userSpaceOnUse"
       gradientTransform="matrix(3,0,0,1.8,-26,24.075)"
       cx="13"
       cy="10.513889"
       fx="13"
       fy="10.513889"
       r="5" />
    <radialGradient
       inkscape:collect="always"
       xlink:href="#StandardGradient"
       id="radialGradient3889"
       gradientUnits="userSpaceOnUse"
       gradientTransform="matrix(3,0,0,1.8,-26,23.075)"
       cx="13"
       cy="10.513889"
       fx="13"
       fy="10.513889"
       r="5" />
    <radialGradient
       inkscape:collect="always"
       xlink:href="#StandardGradient"
       id="radialGradient3896"
       gradientUnits="userSpaceOnUse"
       gradientTransform="matrix(3,0,0,1.8,-26,23.075)"
       cx="13"
       cy="10.513889"
       fx="13"
       fy="10.513889"
       r="5" />
    <radialGradient
       inkscape:collect="always"
       xlink:href="#StandardGradient"
       id="radialGradient3900"
       gradientUnits="userSpaceOnUse"
       gradientTransform="matrix(3,0,0,1.8,-26,23.075)"
       cx="13"
       cy="10.513889"
       fx="13"
       fy="10.513889"
       r="5" />
    <radialGradient
       inkscape:collect="always"
       xlink:href="#StandardGradient"
       id="radialGradient3905"
       gradientUnits="userSpaceOnUse"
       gradientTransform="matrix(3,0,0,1.8,-26,23.075)"
       cx="13"
       cy="10.513889"
       fx="13"
       fy="10.513889"
       r="5" />
    <radialGradient
       inkscape:collect="always"
       xlink:href="#StandardGradient"
       id="radialGradient3914"
       gradientUnits="userSpaceOnUse"
       gradientTransform="matrix(3,0,0,1.8,-26,24.075)"
       cx="13"
       cy="10.513889"
       fx="13"
       fy="10.513889"
       r="5" />
    <radialGradient
       inkscape:collect="always"
       xlink:href="#StandardGradient"
       id="radialGradient3918"
       gradientUnits="userSpaceOnUse"
       gradientTransform="matrix(3,0,0,1.8,-26,23.075)"
       cx="13"
       cy="10.513889"
       fx="13"
       fy="10.513889"
       r="5" />
    <radialGradient
       inkscape:collect="always"
       xlink:href="#StandardGradient"
       id="radialGradient3925"
       gradientUnits="userSpaceOnUse"
       gradientTransform="matrix(3,0,0,1.8,-26,23.075)"
       cx="13"
       cy="10.513889"
       fx="13"
       fy="10.513889"
       r="5" />
  </defs>
  <sodipodi:namedview
     id="base"
     pagecolor="#818181"
     bordercolor="#ffcfcf"
     borderopacity="1"
     inkscape:pageopacity="1"
     inkscape:pageshadow="2"
     inkscape:zoom="8.0764243"
     inkscape:cx="48.202266"
     inkscape:cy="-14.060091"
     inkscape:document-units="px"
     inkscape:current-layer="layer1"
     showgrid="true"
     inkscape:showpageshadow="false"
     showguides="true"
     inkscape:guide-bbox="true"
     inkscape:window-width="1920"
     inkscape:window-height="1030"
     inkscape:window-x="0"
     inkscape:window-y="25"
     inkscape:window-maximized="1"
     borderlayer="true"
     inkscape:snap-global="true">
    <sodipodi:guide
       orientation="0,1"
       position="26.278146,128"
       id="guide2385" />
    <sodipodi:guide
       orientation="1,0"
       position="128,54.082119"
       id="guide2387" />
    <sodipodi:guide
       orientation="0,1"
       position="60.863576,64.084768"
       id="guide2391" />
    <inkscape:grid
       type="xygrid"
       id="grid3672"
       visible="true"
       enabled="true"
       empspacing="8"
       snapvisiblegridlinesonly="true" />
    <sodipodi:guide
       orientation="1,0"
       position="13,6"
       id="guide3013" />
    <sodipodi:guide
       orientation="0,1"
       position="18,10"
       id="guide3015" />
  </sodipodi:namedview>
  <metadata
     id="metadata7">
    <rdf:RDF>
      <cc:Work
         rdf:about="">
        <dc:format>image/svg+xml</dc:format>
        <dc:type
           rdf:resource="http://purl.org/dc/dcmitype/StillImage" />
        <dc:title></dc:title>
      </cc:Work>
    </rdf:RDF>
  </metadata>
  <g
     inkscape:label="Icon"
     inkscape:groupmode="layer"
     id="layer1"
     style="display:inline">
    <path
       style="color:#000000;fill:#ffffff;fill-opacity:1;fill-rule:nonzero;stroke:none;stroke-width:2;marker:none;visibility:visible;display:inline;overflow:visible;enable-background:accumulate;opacity:0.05"
       d="M 7.8125 32 A 1.002531 1.002531 0 0 0 7 33 L 6.5 33 C 5.1309926 33 4 34.130993 4 35.5 L 4 47.5 C 4 48.869007 5.1309926 50 6.5 50 L 14.5 50 C 15.869007 50 17 48.869007 17 47.5 L 17 43 L 18 43 L 18 48 A 1.002531 1.002531 0 0 0 19.9375 48.34375 L 22.9375 40.34375 A 1.002531 1.002531 0 0 0 22 39 L 21 39 L 21 35 A 1.002531 1.002531 0 0 0 19.09375 34.59375 L 17 39.46875 L 17 35.5 C 17 34.130993 15.869007 33 14.5 33 L 14 33 A 1.002531 1.002531 0 0 0 13 32 L 8 32 A 1.002531 1.002531 0 0 0 7.90625 32 A 1.002531 1.002531 0 0 0 7.8125 32 z M 8 33 L 13 33 L 13 34 L 14.5 34 C 15.331 34 16 34.669 16 35.5 L 16 47.5 C 16 48.331 15.331 49 14.5 49 L 6.5 49 C 5.669 49 5 48.331 5 47.5 L 5 35.5 C 5 34.669 5.669 34 6.5 34 L 8 34 L 8 33 z M 20 35 L 20 40 L 22 40 L 19 48 L 19 42 L 17 42 L 20 35 z M 7 36 L 7 47 L 14 47 L 14 36 L 7 36 z M 8 37 L 13 37 L 13 46 L 8 46 L 8 37 z "
       id="path3927" />
    <path
       style="color:#000000;fill:#ffffff;fill-opacity:1;fill-rule:nonzero;stroke:none;stroke-width:2;marker:none;visibility:visible;display:inline;overflow:visible;enable-background:accumulate;opacity:0.2"
       d="M 7 36 L 7 37 L 14 37 L 14 36 L 7 36 z M 21.625 41 L 19 48 L 19 49 L 22 41 L 21.625 41 z M 17.4375 42 L 17 43 L 19 43 L 19 42 L 17.4375 42 z M 5 47.5 L 5 48.5 C 5 49.331 5.669 50 6.5 50 L 14.5 50 C 15.331 50 16 49.331 16 48.5 L 16 47.5 C 16 48.331 15.331 49 14.5 49 L 6.5 49 C 5.669 49 5 48.331 5 47.5 z "
       id="path3912" />
    <path
       style="color:#000000;fill:#ffffff;fill-opacity:1;fill-rule:nonzero;stroke:none;stroke-width:2;marker:none;visibility:visible;display:inline;overflow:visible;enable-background:accumulate;opacity:0.05"
       d="M 7.8125 2.03125 A 0.96692902 0.96692902 0 0 0 7.03125 3 L 7.03125 3.03125 L 6.5 3.03125 C 5.1500984 3.03125 4.03125 4.1500984 4.03125 5.5 L 4.03125 17.5 C 4.03125 18.849902 5.1500984 19.96875 6.5 19.96875 L 14.5 19.96875 C 15.849902 19.96875 16.96875 18.849902 16.96875 17.5 L 16.96875 5.5 C 16.96875 4.1500984 15.849902 3.03125 14.5 3.03125 L 13.96875 3.03125 L 13.96875 3 A 0.96692902 0.96692902 0 0 0 13 2.03125 L 8 2.03125 A 0.96692902 0.96692902 0 0 0 7.90625 2.03125 A 0.96692902 0.96692902 0 0 0 7.8125 2.03125 z M 8 3 L 13 3 L 13 4 L 14.5 4 C 15.331 4 16 4.669 16 5.5 L 16 17.5 C 16 18.331 15.331 19 14.5 19 L 6.5 19 C 5.669 19 5 18.331 5 17.5 L 5 5.5 C 5 4.669 5.669 4 6.5 4 L 8 4 L 8 3 z M 7 6 L 7 17 L 14 17 L 14 6 L 7 6 z M 7.96875 6.96875 L 13.03125 6.96875 L 13.03125 16.03125 L 7.96875 16.03125 L 7.96875 6.96875 z "
       id="path3851" />
    <rect
       style="opacity:0.80000000000000004;color:#000000;fill:url(#radialGradient3851);fill-opacity:1;fill-rule:nonzero;stroke:none;stroke-width:2;stroke-linecap:round;stroke-linejoin:round;stroke-miterlimit:4;stroke-opacity:1;stroke-dasharray:none;stroke-dashoffset:8.59999999999999787;marker:none;visibility:visible;display:inline;overflow:visible;enable-background:accumulate"
       id="rect3841"
       width="8"
       height="8"
       x="32"
       y="-2" />
    <rect
       y="8"
       x="32"
       height="8"
       width="8"
       id="rect3853"
       style="opacity:0.80000000000000004;color:#000000;fill:url(#radialGradient3855);fill-opacity:1.0;fill-rule:nonzero;stroke:none;stroke-width:2;marker:none;visibility:visible;display:inline;overflow:visible;enable-background:accumulate" />
    <path
       style="color:#000000;fill:url(#radialGradient3824);fill-opacity:1;fill-rule:nonzero;stroke:none;stroke-width:2;marker:none;visibility:visible;display:inline;overflow:visible;enable-background:accumulate"
       d="M 8,3 8,4 6.5,4 C 5.669,4 5,4.669 5,5.5 l 0,12 C 5,18.331 5.669,19 6.5,19 l 8,0 c 0.831,0 1.5,-0.669 1.5,-1.5 l 0,-12 C 16,4.669 15.331,4 14.5,4 L 13,4 13,3 z m -1,3 7,0 0,11 -7,0 z"
       id="rect3028"
       inkscape:connector-curvature="0"
       sodipodi:nodetypes="ccsssssssscccccccc" />
    <path
       style="color:#000000;fill:url(#radialGradient3832);fill-opacity:1;fill-rule:nonzero;stroke:none;stroke-width:2;marker:none;visibility:visible;display:inline;overflow:visible;enable-background:accumulate"
       d="M 8 33 L 8 34 L 6.5 34 C 5.669 34 5 34.669 5 35.5 L 5 47.5 C 5 48.331 5.669 49 6.5 49 L 14.5 49 C 15.331 49 16 48.331 16 47.5 L 16 35.5 C 16 34.669 15.331 34 14.5 34 L 13 34 L 13 33 L 8 33 z M 20 35 L 17 42 L 19 42 L 19 48 L 22 40 L 20 40 L 20 35 z M 7 36 L 14 36 L 14 47 L 7 47 L 7 36 z "
       id="path3828" />
    <rect
       y="36"
       x="7"
       height="11"
       width="7"
       id="rect3834"
       style="opacity:0.2;color:#000000;fill:#000000;fill-opacity:1;fill-rule:nonzero;stroke:none;stroke-width:2;marker:none;visibility:visible;display:inline;overflow:visible;enable-background:accumulate" />
    <path
       style="color:#000000;fill:#ffffff;fill-opacity:1;fill-rule:nonzero;stroke:none;stroke-width:2;marker:none;visibility:visible;display:inline;overflow:visible;enable-background:accumulate;opacity:0.2"
       d="M 7 6 L 7 7 L 14 7 L 14 6 L 7 6 z M 5 17.5 L 5 18.5 C 5 19.331 5.669 20 6.5 20 L 14.5 20 C 15.331 20 16 19.331 16 18.5 L 16 17.5 C 16 18.331 15.331 19 14.5 19 L 6.5 19 C 5.669 19 5 18.331 5 17.5 z "
       id="path3836" />
    <path
       style="color:#000000;fill:#000000;fill-opacity:1;fill-rule:nonzero;stroke:none;stroke-width:2;marker:none;visibility:visible;display:inline;overflow:visible;enable-background:accumulate;opacity:0.29999999999999999"
       d="M 8 3 L 8 4 L 6.5 4 C 5.669 4 5 4.669 5 5.5 L 5 17.5 C 5 18.331 5.669 19 6.5 19 L 14.5 19 C 15.331 19 16 18.331 16 17.5 L 16 5.5 C 16 4.669 15.331 4 14.5 4 L 13 4 L 13 3 L 8 3 z M 8.46875 3.46875 L 12.53125 3.46875 L 12.53125 4 A 0.4673267 0.4673267 0 0 0 13 4.46875 L 14.5 4.46875 C 15.08021 4.46875 15.53125 4.9197905 15.53125 5.5 L 15.53125 17.5 C 15.53125 18.08021 15.08021 18.53125 14.5 18.53125 L 6.5 18.53125 C 5.9197905 18.53125 5.46875 18.08021 5.46875 17.5 L 5.46875 5.5 C 5.46875 4.9197905 5.9197905 4.46875 6.5 4.46875 L 8 4.46875 A 0.4673267 0.4673267 0 0 0 8.46875 4 L 8.46875 3.46875 z M 6.875 5.53125 A 0.4673267 0.4673267 0 0 0 6.53125 6 L 6.53125 17 A 0.4673267 0.4673267 0 0 0 7 17.46875 L 14 17.46875 A 0.4673267 0.4673267 0 0 0 14.46875 17 L 14.46875 6 A 0.4673267 0.4673267 0 0 0 14 5.53125 L 7 5.53125 A 0.4673267 0.4673267 0 0 0 6.90625 5.53125 A 0.4673267 0.4673267 0 0 0 6.875 5.53125 z M 7 6 L 14 6 L 14 17 L 7 17 L 7 6 z "
       id="path3865" />
    <path
       style="color:#000000;fill:#000000;fill-opacity:1;fill-rule:nonzero;stroke:none;stroke-width:2;marker:none;visibility:visible;display:inline;overflow:visible;enable-background:accumulate;opacity:0.3"
       d="M 8 3 L 8 4 L 13 4 L 13 3 L 8 3 z M 13 4 L 13 5 L 14.5 5 C 15.331 5 16 5.669 16 6.5 L 16 5.5 C 16 4.669 15.331 4 14.5 4 L 13 4 z M 8 4 L 6.5 4 C 5.669 4 5 4.669 5 5.5 L 5 6.5 C 5 5.669 5.669 5 6.5 5 L 8 5 L 8 4 z M 7 17 L 7 18 L 14 18 L 14 17 L 7 17 z "
       id="path3856" />
    <path
       style="color:#000000;fill:#000000;fill-opacity:1;fill-rule:nonzero;stroke:none;stroke-width:2;marker:none;visibility:visible;display:inline;overflow:visible;enable-background:accumulate;opacity:0.29999999999999999"
       d="M 8 33 L 8 34 L 6.5 34 C 5.669 34 5 34.669 5 35.5 L 5 47.5 C 5 48.331 5.669 49 6.5 49 L 14.5 49 C 15.331 49 16 48.331 16 47.5 L 16 35.5 C 16 34.669 15.331 34 14.5 34 L 13 34 L 13 33 L 8 33 z M 8.5 33.5 L 12.5 33.5 L 12.5 34 A 0.50020195 0.50020195 0 0 0 13 34.5 L 14.5 34.5 C 15.062567 34.5 15.5 34.937433 15.5 35.5 L 15.5 47.5 C 15.5 48.062567 15.062567 48.5 14.5 48.5 L 6.5 48.5 C 5.9374329 48.5 5.5 48.062567 5.5 47.5 L 5.5 35.5 C 5.5 34.937433 5.9374329 34.5 6.5 34.5 L 8 34.5 A 0.50020195 0.50020195 0 0 0 8.5 34 L 8.5 33.5 z M 20 35 L 17 42 L 19 42 L 19 48 L 22 40 L 20 40 L 20 35 z M 6.84375 35.5 A 0.50020195 0.50020195 0 0 0 6.5 36 L 6.5 47 A 0.50020195 0.50020195 0 0 0 7 47.5 L 14 47.5 A 0.50020195 0.50020195 0 0 0 14.5 47 L 14.5 36 A 0.50020195 0.50020195 0 0 0 14 35.5 L 7 35.5 A 0.50020195 0.50020195 0 0 0 6.90625 35.5 A 0.50020195 0.50020195 0 0 0 6.84375 35.5 z M 7 36 L 14 36 L 14 47 L 7 47 L 7 36 z M 19.5 37.4375 L 19.5 40 A 0.50020195 0.50020195 0 0 0 20 40.5 L 21.28125 40.5 L 19.5 45.21875 L 19.5 42 A 0.50020195 0.50020195 0 0 0 19 41.5 L 17.75 41.5 L 19.5 37.4375 z "
       id="path3892" />
    <path
       style="color:#000000;fill:#000000;fill-opacity:1;fill-rule:nonzero;stroke:none;stroke-width:2;marker:none;visibility:visible;display:inline;overflow:visible;enable-background:accumulate;opacity:0.3"
       d="M 8 33 L 8 34 L 13 34 L 13 33 L 8 33 z M 13 34 L 13 35 L 14.5 35 C 15.331 35 16 35.669 16 36.5 L 16 35.5 C 16 34.669 15.331 34 14.5 34 L 13 34 z M 8 34 L 6.5 34 C 5.669 34 5 34.669 5 35.5 L 5 36.5 C 5 35.669 5.669 35 6.5 35 L 8 35 L 8 34 z M 20 35 L 17 42 L 17.4375 42 L 20 36 L 20 35 z M 20 40 L 20 41 L 21.625 41 L 22 40 L 20 40 z M 7 47 L 7 48 L 14 48 L 14 47 L 7 47 z "
       id="path3883" />
    <rect
       style="opacity:0.2;color:#000000;fill:#000000;fill-opacity:1;fill-rule:nonzero;stroke:none;stroke-width:2;marker:none;visibility:visible;display:inline;overflow:visible;enable-background:accumulate"
       id="rect3035"
       width="7"
       height="11"
       x="7"
       y="6" />
  </g>
</svg>
