/* XPM */
static char *desktop[] = {
/* columns rows colors chars-per-pixel */
"24 24 198 2 ",
"   c #010101",
".  c #0F0F0F",
"X  c #170A12",
"o  c #151515",
"O  c #1B1B1B",
"+  c #240D0F",
"@  c #272727",
"#  c #2A2A2A",
"$  c #323232",
"%  c #3A3A3A",
"&  c #4D161B",
"*  c #55171B",
"=  c #52191F",
"-  c #631A1C",
";  c #6D1C1D",
":  c #721E1F",
">  c #451726",
",  c #461825",
"<  c #4D1A25",
"1  c #461829",
"2  c #4D1A2B",
"3  c #541B23",
"4  c #5A1E26",
"5  c #551C2B",
"6  c #5A1E2E",
"7  c #421C33",
"8  c #4E1C31",
"9  c #501E35",
"0  c #651C23",
"q  c #691E27",
"w  c #651E2B",
"e  c #681F29",
"r  c #582127",
"t  c #5B232A",
"y  c #512039",
"u  c #5D223F",
"i  c #682B2E",
"p  c #7C2226",
"a  c #7C232B",
"s  c #642233",
"d  c #64253E",
"f  c #712331",
"g  c #792430",
"h  c #712738",
"j  c #6A353C",
"k  c #522F42",
"l  c #553344",
"z  c #5A3946",
"x  c #5E3C48",
"c  c #6A2845",
"v  c #7B2E43",
"b  c #752D49",
"n  c #6D3B42",
"m  c #444444",
"M  c gray30",
"N  c #585858",
"B  c #6E4147",
"V  c #63414C",
"C  c #6C444D",
"Z  c #646464",
"A  c #777777",
"S  c #8D2422",
"D  c #922623",
"F  c #9F2C2F",
"G  c #832B3A",
"H  c #8E2D39",
"J  c #992C33",
"K  c #972E38",
"L  c #9B2F3D",
"P  c #833535",
"I  c #9B303F",
"U  c #A02C26",
"Y  c #B3332D",
"T  c #BC3A2B",
"R  c #A7363F",
"E  c #A8343C",
"W  c #B63D3D",
"Q  c #BC3D3D",
"!  c #C23E2D",
"~  c #A1413E",
"^  c #CA4532",
"/  c #C2453F",
"(  c #C8443B",
")  c #CF4E3F",
"_  c #CE5B3A",
"`  c #D35236",
"'  c #D15D3A",
"]  c #D5643E",
"[  c #8D3344",
"{  c #993444",
"}  c #9E3846",
"|  c #90394D",
" . c #9A3B4C",
".. c #813451",
"X. c #8A3A55",
"o. c #993E51",
"O. c #923E59",
"+. c #A63A43",
"@. c #A93B45",
"#. c #A63E49",
"$. c #B33D43",
"%. c #994156",
"&. c #95435A",
"*. c #9C475F",
"=. c #9C4A5C",
"-. c #A6434F",
";. c #B64242",
":. c #B54849",
">. c #A24152",
",. c #A74956",
"<. c #A0475C",
"1. c #A34E5E",
"2. c #B04B58",
"3. c #B65053",
"4. c #BC5057",
"5. c #B7595F",
"6. c #9B4863",
"7. c #A34E64",
"8. c #A55665",
"9. c #A6536C",
"0. c #AB5A6C",
"q. c #B05466",
"w. c #AE5D74",
"e. c #B7606A",
"r. c #BF636F",
"t. c #B46475",
"y. c #B7687D",
"u. c #BE6B7B",
"i. c #C24B43",
"p. c #C3574C",
"a. c #DA5640",
"s. c #D35942",
"d. c #C85856",
"f. c #D25E50",
"g. c #DA6342",
"h. c #DB6F45",
"j. c #D7794F",
"k. c #C4625D",
"l. c #D06752",
"z. c #DC7656",
"x. c #DB7F51",
"c. c #D5765B",
"v. c #E46241",
"b. c #EC6F45",
"n. c #E47048",
"m. c #E27A50",
"M. c #C5706F",
"N. c #D27A68",
"B. c #CC6E70",
"V. c #C5797D",
"C. c #D77E72",
"Z. c #DF8958",
"A. c #F0814C",
"S. c #E18050",
"D. c #EB8150",
"F. c #E28E5C",
"G. c #EB9257",
"H. c #E4925D",
"J. c #ED9459",
"K. c #F39053",
"L. c #F39C5A",
"P. c #DA8F74",
"I. c #DD9272",
"U. c #E38B60",
"Y. c #E69562",
"T. c #E49863",
"R. c #EA9B61",
"E. c #E89D6A",
"W. c #E19172",
"Q. c #EFA669",
"!. c #F2A667",
"~. c #F3AD6D",
"^. c #EAAA72",
"/. c #E1A37E",
"(. c #E8AB7B",
"). c #EDB177",
"_. c #EEB87B",
"`. c #BF7585",
"'. c #C37C86",
"]. c #CA828B",
"[. c #D18D82",
"{. c #D6948D",
"}. c #D89E8F",
"|. c #CD9097",
" X c #D09393",
".X c #D39C9C",
"XX c #DFA58E",
"oX c #DFAB97",
"OX c #DCA79D",
"+X c #E7AC84",
"@X c #EDAF87",
"#X c #EDBA81",
"$X c #E7B38B",
"%X c #EAB78A",
"&X c #ECBB89",
"*X c #F0BD80",
"=X c #E4B196",
"-X c None",
/* pixels */
"-X-X-X-X-X-X-X-X-X-X-X-X-X-X-X-X-X-X-X-X-X-X-X-X",
"-X-X-X-X-X-X-X-X-X-X-X-X-X-X-X-X-X-X-X-X-X-X-X-X",
"-X-X-X% $ $ $ $ $ $ $ $ $ $ $ $ $ $ $ $ % -X-X-X",
"-X-X$ .             . . o O             o $ -X-X",
"-X-X#   M N         $ m m #         Z A   # -X-X",
"-X-X@                                 O   @ -X-X",
"-X-X0.L E W / ) a.v.b.A.K.L.L.L.J.J.J.H.R.@X-X-X",
"-X-X8.{ R ;.i.s.g.n.D.J.!.~.~.Q.R.H.F.Z.F.+X-X-X",
"-X-X8.{ +.:.p.l.z.U.E.).#X*X_.^.H.Z.S.j.j.I.-X-X",
"-X-X=.{ @.4.k.N.P.+X+X%X&X#X^.Y.S.h.] ' _ c.-X-X",
"-X-X=.} -.q.B.[.}.oX=X$X(.Y.m.g.` ^ T T T p.-X-X",
"-X-X=.} ,.e.'. X.XOXXXI.z.s.^ Y U D S S S ~ -X-X",
"-X-X=.o.7.t.'.|..X{.C.f.( Y S : - - - - ; P -X-X",
"-X-X&.%.9.w.`.'.'.B.d.Q F p 0 * & & & & * i -X-X",
"-X-XO.&.7.w.y.M.M.4.$.J p 0 3 & & & & & & t -X-X",
"-X-XX.O.6.9.9.q.2.@.K a q 4 3 * = < = = 3 r -X-X",
"-X-XX.X.&.6.<.>.+.H g w 4 3 3 3 3 3 3 3 3 4 -X-X",
"-X-Xb b X.X.| [ G f w 4 4 3 * 5 3 3 4 4 4 4 -X-X",
"-X-Xc b b v v h s 6 5 3 = 3 3 3 4 4 4 4 4 4 -X-X",
"-X-Xu d c d s 6 5 2 < < < < 3 5 3 r 4 4 4 t -X-X",
"-X-X7 y 8 8 8 1 > > > , < < 3 3 5 4 4 r t 3 -X-X",
"-X-XX 7 k k l l z x V C C C B n n n n j t + -X-X",
"-X-X-X-X                                -X-X-X-X",
"-X-X-X-X-X-X-X-X-X-X-X-X-X-X-X-X-X-X-X-X-X-X-X-X"
};
