/* XPM */
static char *desktop[] = {
/* columns rows colors chars-per-pixel */
"32 32 256 2 ",
"   c #000000",
".  c #0C0C0C",
"X  c #1E150E",
"o  c #111111",
"O  c #191919",
"+  c #2A1419",
"@  c #2B1225",
"#  c #2C1129",
"$  c #331626",
"%  c #3C1624",
"&  c #371827",
"*  c #3D1A27",
"=  c #32142B",
"-  c #39162F",
";  c #3B1A2D",
":  c #371A32",
">  c #242424",
",  c #2C2C2C",
"<  c #3F2D22",
"1  c #373737",
"2  c #3C3C3C",
"3  c #441A26",
"4  c #4C1B25",
"5  c #441D2C",
"6  c #4C1E29",
"7  c #541E24",
"8  c #5B1E26",
"9  c #501E28",
"0  c #5A1F28",
"q  c #441D33",
"w  c #4C1D38",
"e  c #6A1E20",
"r  c #631D28",
"t  c #46202F",
"y  c #4C212D",
"u  c #592127",
"i  c #55232C",
"p  c #5C242B",
"a  c #5C282E",
"s  c #552227",
"d  c #4A3225",
"f  c #583E2A",
"g  c #452031",
"h  c #4E2331",
"j  c #412930",
"k  c #4F223D",
"l  c #552734",
"z  c #5A2731",
"x  c #5E2932",
"c  c #53233B",
"v  c #5C293A",
"b  c #59233D",
"n  c #4D3236",
"m  c #523636",
"M  c #553936",
"N  c #5C3C39",
"B  c #662325",
"V  c #62262D",
"C  c #62292D",
"Z  c #69232B",
"A  c #792C2D",
"S  c #782729",
"D  c #622A32",
"F  c #6B2D33",
"G  c #632C3D",
"H  c #6C2E3B",
"J  c #742E34",
"K  c #732F3B",
"L  c #6E3C37",
"P  c #643F3B",
"I  c #683834",
"U  c #7B3132",
"Y  c #76313D",
"T  c #7B3139",
"R  c #703F39",
"E  c #6E413A",
"W  c #6C4137",
"Q  c #735033",
"!  c #7C5533",
"~  c #5C2741",
"^  c #652B43",
"/  c #6F2F4C",
"(  c #6C2D47",
")  c #702C49",
"_  c #743345",
"`  c #7E3442",
"'  c #75334D",
"]  c #78334C",
"[  c #7E3551",
"{  c #7D3853",
"}  c #464646",
"|  c #494949",
" . c #505050",
".. c gray42",
"X. c #872A28",
"o. c #992C29",
"O. c #97302D",
"+. c #8E2A3D",
"@. c #813331",
"#. c #8F3536",
"$. c #89343C",
"%. c #883B32",
"&. c #9A3633",
"*. c #B43A2D",
"=. c #A53C3B",
"-. c #A63A38",
";. c #B73B30",
":. c #B83F34",
">. c #934533",
",. c #994E35",
"<. c #815734",
"1. c #865A36",
"2. c #8C5D37",
"3. c #9D5A3A",
"4. c #B84439",
"5. c #8F6038",
"6. c #93613A",
"7. c #C34A3E",
"8. c #CF583D",
"9. c #CB5237",
"0. c #8E2D41",
"q. c #972F40",
"w. c #8D3245",
"e. c #8D354B",
"r. c #883848",
"t. c #9E3C44",
"y. c #983A4B",
"u. c #953947",
"i. c #843652",
"p. c #8A3750",
"a. c #853B54",
"s. c #893A51",
"d. c #8A3E59",
"f. c #983E51",
"g. c #A23A47",
"h. c #9F424F",
"j. c #964256",
"k. c #93445C",
"l. c #984154",
"z. c #AD454D",
"x. c #A3404D",
"c. c #B94849",
"v. c #A34552",
"b. c #AF4850",
"n. c #A44B5B",
"m. c #AE4D5A",
"M. c #B04C54",
"N. c #B0525D",
"B. c #BB535A",
"V. c #BB585A",
"C. c #976341",
"Z. c #996440",
"A. c #9E6B45",
"S. c #A06640",
"D. c #A06D45",
"F. c #9A4B65",
"G. c #9F5067",
"H. c #A24E63",
"J. c #AF5965",
"K. c #AF5D6F",
"L. c #A25269",
"P. c #B05666",
"I. c #B55D6A",
"U. c #A75971",
"Y. c #AB5C72",
"T. c #BC6368",
"R. c #AE6279",
"E. c #B5697E",
"W. c #BA6C7C",
"Q. c #BC6875",
"!. c #C24947",
"~. c #CE5345",
"^. c #CA5D42",
"/. c #D45E45",
"(. c #C55653",
"). c #C95C57",
"_. c #D16946",
"`. c #DB6B4D",
"'. c #D6674A",
"]. c #CE6658",
"[. c #D66653",
"{. c #D47251",
"}. c #DF7453",
"|. c #DA7E55",
" X c #D7755F",
".X c #DB7957",
"XX c #E37B58",
"oX c #CB6768",
"OX c #C46466",
"+X c #D36D66",
"@X c #C6706F",
"#X c #CF766A",
"$X c #DB7665",
"%X c #C46E78",
"&X c #C7787A",
"*X c #CD787B",
"=X c #DB855C",
"-X c #DF8E5F",
";X c #E7845C",
":X c #DE8062",
">X c #D8836F",
",X c #DE8B61",
"<X c #DC9166",
"1X c #D3817A",
"2X c #DE8C7C",
"3X c #DE9276",
"4X c #E28E63",
"5X c #E48B6A",
"6X c #E39264",
"7X c #E59B6B",
"8X c #E99D6D",
"9X c #ED9564",
"0X c #E89F77",
"qX c #E49C7E",
"wX c #F0A46D",
"eX c #EAA572",
"rX c #ECAA78",
"tX c #E3A07D",
"yX c #F0AF78",
"uX c #F3AF75",
"iX c #EDB27D",
"pX c #F3B67A",
"aX c #BB7085",
"sX c #C77F84",
"dX c #C07688",
"fX c #C27887",
"gX c #C5818C",
"hX c #CE848B",
"jX c #D08C86",
"kX c #D79382",
"lX c #CB8F98",
"zX c #CA8692",
"xX c #CE9395",
"cX c #D79290",
"vX c #D2999E",
"bX c #DA9F93",
"nX c #DDA28B",
"mX c #D5A09F",
"MX c #DCA99D",
"NX c #E7AE84",
"BX c #ECB383",
"VX c #ECBA88",
"CX c #F1BE88",
"ZX c #F0BD85",
"AX c #E2AD92",
"SX c #EBBC94",
"DX c #E7B899",
"FX c #D39EA1",
"GX c #D9A5A3",
"HX c #DCACA7",
"JX c #E2B2A1",
"KX c #EFC38B",
"LX c #F1C28B",
"PX c #EFC391",
"IX c #F0C293",
"UX c None",
/* pixels */
"UXUXUXUXUXUXUXUXUXUXUXUXUXUXUXUXUXUXUXUXUXUXUXUXUXUXUXUXUXUXUXUX",
"UXUXUXUXUXUXUXUXUXUXUXUXUXUXUXUXUXUXUXUXUXUXUXUXUXUXUXUXUXUXUXUX",
"UXUXUXo . . . . . . . . . . . . . . . . . . . . . . . . o UXUXUX",
"UXUXo , ..|              .1 }   1 } } }               | | o UXUX",
"UXUX. . . o             > , >   O > > o               . > . UXUX",
"UXUX+ 8 r Z A U U %.%.>.>.,.3.3.S.D.D.D.D.D.Z.Z.C.C.Z.C.Z.< UXUX",
"UXUXw.+.q.g.z.c.(.].[.}.XX;X9XwXuXpXpXpXyXeX8X7X6X6X,X-X-X<XUXUX",
"UXUXe.0.q.g.b.V.).]. X:X5X8XyXBXCXLXLXZXiXeX7X6X,X=X=X|.|.,XUXUX",
"UXUXe.+.u.g.M.V.oX#X>X3XqXNXVXSXPXPXKXZXrX7X6X=X|.{.{._._.{.UXUX",
"UXUXe.0.y.v.N.T.@X1X3XnXAXDXDXSXIXVXBX8X6X;X}.`././.8.9.9.8.UXUX",
"UXUXe.w.y.v.J.T.&XjXbXMXJXJXDXDXNX0X5XXX`./.8.9.7.4.4.;.*.4.UXUX",
"UXUXp.w.y.n.J.Q.gXxXFXGXJXMXAXqX5X X'.~.!.4.-.&.&.O.O.o.o.-.UXUX",
"UXUXp.w.f.n.J.W.gXxXFXGXGXbX2X$X[.~.!.-.%.@.U U A A S S X.X.UXUX",
"UXUXp.p.l.H.K.W.gXlXvXvXcX1X+X).!.-.#.U A C C C C B B e e S UXUX",
"UXUXs.p.l.H.Y.aXaXlXlXhX*XoX(.c.=.$.J F C a a C a s u 7 8 Z UXUX",
"UXUXs.s.j.G.Y.E.aXaXfX@XOXB.c.g.$.J F V a a p d a s 7 7 7 a UXUX",
"UXUXa.i.k.G.U.R.E.E.Q.I.V.z.t.$.T J D D x a a a a a u s 7 p UXUX",
"UXUXi.i.d.F.L.U.Y.K.P.m.z.t.r.T J D D D x x x x x a a u s a UXUX",
"UXUX{ [ a.k.F.G.H.n.v.h.u.$.Y K F D D x x D D D D D a u u C UXUX",
"UXUX{ ' { d.k.k.k.j.l.r.` H F G D x D x x D D D D D a C p D UXUX",
"UXUX/ ) ] { a.d.s.r.` Y H D D D x x x x D D D D D D V V p C UXUX",
"UXUX^ ^ ( / ' ] ] _ H G G x v z l x x x x D D D D D V p 0 D UXUX",
"UXUX~ b ~ ^ ^ ^ ^ v v l l l l z l z z x x D x D V D V r V C UXUX",
"UXUXk w c c c c c n h h h y y l i z i x x x D C V V V V 0 D UXUX",
"UXUXq q q q q q 5 g t t t y y y h i i p p x x x V x V 0 0 V UXUX",
"UXUX: = - - ; ; ; ; ; ; ; 5 3 y 9 9 i p p u p p p 0 p p r V UXUX",
"UXUX: # = = = = & $ $ & * 3 3 3 6 9 9 9 9 0 u u 0 0 p r u D UXUX",
"UXUXj # @ # # # @ @ @ $ $ % % 3 3 3 4 4 7 9 7 8 0 0 0 0 V D UXUX",
"UXUXd M n n n m m m M N N P P E E E E E R E R L L L L L W d UXUX",
"UXUXX f Q Q ! ! <.1.1.2.5.5.6.6.6.6.5.5.2.1.1.<.! ! ! Q f X UXUX",
"UXUXUXUX                                                UXUXUXUX",
"UXUXUXUXUXUXUXUXUXUXUXUXUXUXUXUXUXUXUXUXUXUXUXUXUXUXUXUXUXUXUXUX"
};
