/* XPM */
static char *lock[] = {
/* columns rows colors chars-per-pixel */
"24 24 4 1",
"  c black",
". c gray9",
"X c gray10",
"o c None",
/* pixels */
"oooooooooooooooooooooooo",
"oooooooooooooooooooooooo",
"oooooooooooooooooooooooo",
"oooooooooooooooooooooooo",
"oooooooooooooooooooooooo",
"ooooooooo.    .ooooooooo",
"ooooooooo oooo ooooooooo",
"ooooooooo oooo ooooooooo",
"ooooooooo oooo ooooooooo",
"ooooooooo oooo ooooooooo",
"oooooooX        Xooooooo",
"ooooooo          ooooooo",
"ooooooo          ooooooo",
"ooooooo          ooooooo",
"ooooooo          ooooooo",
"ooooooo          ooooooo",
"ooooooo          ooooooo",
"oooooooooooooooooooooooo",
"oooooooooooooooooooooooo",
"oooooooooooooooooooooooo",
"oooooooooooooooooooooooo",
"oooooooooooooooooooooooo",
"oooooooooooooooooooooooo",
"oooooooooooooooooooooooo"
};
